<svg width="192" height="46" viewBox="0 0 192 46" fill="none" xmlns="http://www.w3.org/2000/svg">
<rect x="3" y="22.3799" width="9.40509" height="14.6205" rx="4.70255" fill="#6153FF"/>
<rect x="3" width="9.40509" height="9.40509" rx="4.70255" fill="#9328FF"/>
<rect x="16.6843" y="10.8838" width="9.40509" height="26.115" rx="4.70255" fill="#6153FF"/>
<rect x="30.3685" width="9.40509" height="36.9989" rx="4.70255" fill="#6153FF"/>
<path d="M54.048 35V16.938H50.572L51.078 13.264H54.048V8.336C54.048 6.41467 54.5833 4.882 55.654 3.738C56.7393 2.57933 58.316 2 60.384 2C61.1027 2 61.748 2.044 62.32 2.132C62.892 2.22 63.4053 2.34467 63.86 2.506L63.31 6.29C63.0167 6.18733 62.716 6.10667 62.408 6.048C62.1 5.98933 61.7333 5.96 61.308 5.96C60.4867 5.96 59.834 6.18733 59.35 6.642C58.8807 7.09667 58.646 7.852 58.646 8.908V13.264H64.036V16.938H58.646V35H54.048ZM67.3563 35V13.264H71.4043L71.7343 16.3C72.6143 15.244 73.5529 14.4007 74.5503 13.77C75.5623 13.1393 76.6549 12.824 77.8283 12.824C78.1803 12.824 78.5103 12.8607 78.8183 12.934L78.4223 17.708C78.1729 17.6493 77.9163 17.6053 77.6523 17.576C77.4029 17.5467 77.1389 17.532 76.8603 17.532C75.8043 17.532 74.8363 17.774 73.9563 18.258C73.0909 18.7273 72.4749 19.2627 72.1083 19.864V35H67.3563ZM86.1412 35.44C84.8799 35.44 83.7579 35.176 82.7752 34.648C81.7925 34.1053 81.0152 33.3573 80.4432 32.404C79.8859 31.4507 79.6072 30.3287 79.6072 29.038C79.6072 27.806 79.8859 26.7573 80.4432 25.892C81.0005 25.012 81.7412 24.2787 82.6652 23.692C83.5892 23.1053 84.6012 22.6433 85.7012 22.306C86.8159 21.954 87.9452 21.6973 89.0892 21.536C90.2332 21.3747 91.2965 21.2867 92.2792 21.272C92.2645 19.556 91.8979 18.3973 91.1792 17.796C90.4605 17.18 89.3679 16.872 87.9012 16.872C87.0212 16.872 86.1192 17.004 85.1952 17.268C84.2712 17.5173 83.2299 17.994 82.0712 18.698L81.5432 14.958C82.5992 14.3127 83.7799 13.7993 85.0852 13.418C86.3905 13.0367 87.7399 12.846 89.1332 12.846C90.8785 12.846 92.3232 13.154 93.4672 13.77C94.6112 14.386 95.4692 15.4053 96.0412 16.828C96.6132 18.2507 96.8992 20.1573 96.8992 22.548V27.608C96.8992 28.664 96.9432 29.4927 97.0312 30.094C97.1339 30.6807 97.3465 31.0987 97.6692 31.348C97.9919 31.5973 98.4832 31.722 99.1432 31.722H99.6712L99.0992 35.44H98.0872C97.0019 35.44 96.1219 35.3227 95.4472 35.088C94.7872 34.8533 94.2519 34.5233 93.8412 34.098C93.4305 33.658 93.0859 33.1373 92.8072 32.536C92.0299 33.416 91.0619 34.12 89.9032 34.648C88.7592 35.176 87.5052 35.44 86.1412 35.44ZM87.5492 31.832C88.3705 31.832 89.2139 31.6267 90.0792 31.216C90.9592 30.8053 91.6999 30.2333 92.3012 29.5V24.396C90.6585 24.4693 89.2432 24.6673 88.0552 24.99C86.8819 25.298 85.9725 25.7673 85.3272 26.398C84.6965 27.0287 84.3812 27.8353 84.3812 28.818C84.3812 29.874 84.6599 30.644 85.2172 31.128C85.7745 31.5973 86.5519 31.832 87.5492 31.832ZM102.677 35V13.264H106.615L107.165 17.378L105.757 16.278C106.945 15.046 108.184 14.166 109.475 13.638C110.765 13.11 112.115 12.846 113.523 12.846C116.529 12.846 118.715 13.77 120.079 15.618C121.443 17.4513 122.125 19.8933 122.125 22.944V35H117.527V23.142C117.527 20.9567 117.138 19.3507 116.361 18.324C115.583 17.2973 114.271 16.784 112.423 16.784C111.059 16.784 109.856 17.0993 108.815 17.73C107.788 18.346 107.04 19.27 106.571 20.502L107.275 17.972V35H102.677ZM137.158 35.44C134.694 35.44 132.618 34.934 130.932 33.922C129.26 32.91 127.998 31.5607 127.148 29.874C126.297 28.1727 125.872 26.288 125.872 24.22C125.872 22.0933 126.29 20.172 127.126 18.456C127.962 16.7253 129.23 15.354 130.932 14.342C132.633 13.33 134.796 12.824 137.422 12.824C138.595 12.824 139.68 12.9487 140.678 13.198C141.675 13.4327 142.555 13.748 143.318 14.144L142.768 18.016C142.02 17.6493 141.206 17.356 140.326 17.136C139.446 16.9013 138.536 16.784 137.598 16.784C135.324 16.784 133.579 17.444 132.362 18.764C131.159 20.084 130.558 21.866 130.558 24.11C130.558 26.2953 131.152 28.0773 132.34 29.456C133.528 30.8347 135.258 31.524 137.532 31.524C138.47 31.524 139.38 31.4067 140.26 31.172C141.154 30.9227 142.005 30.5853 142.812 30.16L143.318 33.944C142.658 34.3547 141.77 34.7067 140.656 35C139.556 35.2933 138.39 35.44 137.158 35.44ZM147.106 35V13.264H151.704V35H147.106ZM147.106 9.04V4.2H151.704V9.04H147.106ZM158.376 35V16.938H154.9L155.406 13.264H158.376V8.336C158.376 6.41467 158.911 4.882 159.982 3.738C161.067 2.57933 162.644 2 164.712 2C165.431 2 166.076 2.044 166.648 2.132C167.22 2.22 167.733 2.34467 168.188 2.506L167.638 6.29C167.345 6.18733 167.044 6.10667 166.736 6.048C166.428 5.98933 166.061 5.96 165.636 5.96C164.815 5.96 164.162 6.18733 163.678 6.642C163.209 7.09667 162.974 7.852 162.974 8.908V13.264H168.364V16.938H162.974V35H158.376ZM173.378 45.648L178.306 33.834L169.264 13.264H174.368L180.638 28.488L186.556 13.264H191.66L178.218 45.648H173.378Z" fill="#6153FF"/>
</svg>
